<?xml version="1.0" encoding="utf-8"?>
<!-- Generator: Adobe Illustrator 19.1.0, SVG Export Plug-In . SVG Version: 6.00 Build 0)  -->
<svg version="1.1" id="Layer_1" xmlns="http://www.w3.org/2000/svg" xmlns:xlink="http://www.w3.org/1999/xlink" x="0px" y="0px"
	 viewBox="0 0 350 600" style="enable-background:new 0 0 792 612;" xml:space="preserve">
<style type="text/css">
	.st0{fill:#2E3192;}
	.st1{clip-path:url(#SVGID_2_);fill:url(#SVGID_3_);}
	.st2{clip-path:url(#SVGID_5_);fill:url(#SVGID_6_);}
	.st3{clip-path:url(#SVGID_8_);fill:url(#SVGID_9_);}
</style>
<g>
	<defs>
		<path id="SVGID_1_" d="M148.2,153.5l-69.9,38.9c-17.6,9.8-28.5,28.4-28.5,48.5c0,30.6,24.9,55.5,55.5,55.5h132.1
			c12.1,0,21.9,9.8,21.9,21.9v60.1c0,7.6-4.1,14.8-10.6,18.7l-62.4,37.6c-6.8,4.1-15.3,4.2-22.2,0.2l-61.9-35.6
			c-9.1-5.2-14.7-15-14.7-25.5v-17.6c0-9.3-7.5-16.8-16.8-16.8c-9.3,0-16.8,7.5-16.8,16.8v17.6c0,22.5,12.1,43.4,31.6,54.6
			l61.9,35.6c8.6,4.9,18.1,7.4,27.7,7.4c9.9,0,19.8-2.7,28.6-8l62.4-37.6c16.6-10,26.9-28.2,26.9-47.5v-60.1
			c0-30.6-24.9-55.5-55.5-55.5H105.3c-12.1,0-21.9-9.8-21.9-21.9c0-7.9,4.3-15.3,11.2-19.1l69.9-38.9c6.7-3.7,14.9-3.7,21.6,0.2
			l85.8,49.4c8.1,4.6,18.3,1.9,23-6.2c4.6-8,1.9-18.3-6.2-23l-85.8-49.4c-8.5-4.9-18.1-7.4-27.7-7.4
			C165.8,146.6,156.5,148.9,148.2,153.5"/>
	</defs>
	<clipPath id="SVGID_2_">
		<use xlink:href="#SVGID_1_"  style="overflow:visible;"/>
	</clipPath>
	
		<linearGradient id="SVGID_3_" gradientUnits="userSpaceOnUse" x1="-4.2403" y1="606.668" x2="-2.9039" y2="606.668" gradientTransform="matrix(0 -326.4142 -326.4142 0 198199.625 -766.0095)">
		<stop  offset="0" style="stop-color:#1BFFFF"/>
		<stop  offset="9.943406e-02" style="stop-color:#1CF6FA"/>
		<stop  offset="0.2641" style="stop-color:#1EDCED"/>
		<stop  offset="0.4737" style="stop-color:#22B3D7"/>
		<stop  offset="0.7198" style="stop-color:#277AB9"/>
		<stop  offset="0.9941" style="stop-color:#2E3393"/>
		<stop  offset="1" style="stop-color:#2E3192"/>
	</linearGradient>
	<rect x="49.8" y="146.6" class="st1" width="249.7" height="324.9"/>
</g>
<g>
	<defs>
		<path id="SVGID_4_" d="M162.3,377.9v74.5c0,6.6,5.4,12,12,12c6.6,0,12-5.4,12-12v-74.5c0-6.6-5.4-12-12-12
			C167.7,365.8,162.3,371.2,162.3,377.9"/>
	</defs>
	<clipPath id="SVGID_5_">
		<use xlink:href="#SVGID_4_"  style="overflow:visible;"/>
	</clipPath>
	
		<linearGradient id="SVGID_6_" gradientUnits="userSpaceOnUse" x1="-4.2403" y1="606.671" x2="-2.9039" y2="606.671" gradientTransform="matrix(0 -326.4142 -326.4142 0 198200.2969 -766.0095)">
		<stop  offset="0" style="stop-color:#1BFFFF"/>
		<stop  offset="9.943406e-02" style="stop-color:#1CF6FA"/>
		<stop  offset="0.2641" style="stop-color:#1EDCED"/>
		<stop  offset="0.4737" style="stop-color:#22B3D7"/>
		<stop  offset="0.7198" style="stop-color:#277AB9"/>
		<stop  offset="0.9941" style="stop-color:#2E3393"/>
		<stop  offset="1" style="stop-color:#2E3192"/>
	</linearGradient>
	<rect x="162.3" y="365.8" class="st2" width="24" height="98.5"/>
</g>
<g>
	<defs>
		<path id="SVGID_7_" d="M158.2,340.8c0,8.4,6.8,15.2,15.2,15.2c8.4,0,15.2-6.8,15.2-15.2c0-8.4-6.8-15.2-15.2-15.2
			C165,325.6,158.2,332.4,158.2,340.8"/>
	</defs>
	<clipPath id="SVGID_8_">
		<use xlink:href="#SVGID_7_"  style="overflow:visible;"/>
	</clipPath>
	
		<linearGradient id="SVGID_9_" gradientUnits="userSpaceOnUse" x1="-4.2403" y1="606.6717" x2="-2.9039" y2="606.6717" gradientTransform="matrix(0 -326.4142 -326.4142 0 198199.625 -766.0095)">
		<stop  offset="0" style="stop-color:#1BFFFF"/>
		<stop  offset="9.943406e-02" style="stop-color:#1CF6FA"/>
		<stop  offset="0.2641" style="stop-color:#1EDCED"/>
		<stop  offset="0.4737" style="stop-color:#22B3D7"/>
		<stop  offset="0.7198" style="stop-color:#277AB9"/>
		<stop  offset="0.9941" style="stop-color:#2E3393"/>
		<stop  offset="1" style="stop-color:#2E3192"/>
	</linearGradient>
	<rect x="158.2" y="325.6" class="st3" width="30.4" height="30.4"/>
</g>
</svg>
